<svg xmlns="http://www.w3.org/2000/svg" viewBox="0 0 256 256" role="img" aria-labelledby="title desc">
  <title id="title">Hairstyle Web Designer</title>
  <desc id="desc">A stylized hair silhouette and web layout grid.</desc>
  <rect width="256" height="256" rx="48" fill="#FAF8F3"/>
  <path d="M56 166c0-58 31-98 76-98 41 0 68 30 68 75 0 48-30 77-72 77-43 0-72-22-72-54Z" fill="#221F1C"/>
  <path d="M78 156c4-45 25-68 57-68 25 0 42 16 44 43-18-18-38-22-60-12-16 7-29 19-41 37Z" fill="#9F4D43"/>
  <path d="M92 178c14 16 50 22 72 3" fill="none" stroke="#FAF8F3" stroke-width="10" stroke-linecap="round"/>
  <rect x="46" y="42" width="164" height="34" rx="12" fill="#6F7F67"/>
  <rect x="68" y="52" width="52" height="8" rx="4" fill="#FAF8F3"/>
  <rect x="132" y="52" width="44" height="8" rx="4" fill="#FAF8F3"/>
  <circle cx="194" cy="59" r="6" fill="#FAF8F3"/>
</svg>
